# xmcd CD database file generated by MAGIX-FreeDB-PlayR v2.0beta1
# 
# Track frame offsets:
#      150
#      7130
#      17408
#      27437
#      36203
#      48375
#      63204
#      73030
#      82678
#      92363
#      101202
#      111363
#      118882
#      130607
#      138521
#      147793
#      156700
#      165938
#      177811
#      187526
#      198121
#      208199
#      218417
#      229262
#      238432
# 
# Disc length: 3314 seconds
# 
# Revision: 2 
# Processed by: cddbd v1.5.2PL0 Copyright (c) Steve Scherf et al.
# Submitted via: MAGIX-FreeDB-PlayR v2.0beta1
# 
DISCID=540cf019
DTITLE=Various Artist - The Roots Of Psychobilly - CD1
DYEAR=2012
DGENRE=Rock and Roll
TTITLE0=The Phantom - Love Me
TTITLE1=Link Wray and His Ray Men - Rumble
TTITLE2=Dick Dale - Jessie Pearl
TTITLE3=Ron Thompson - Switchblade
TTITLE4=Jackie Morningstar - Rockin' In The Graveyard
TTITLE5=Mac Rebennack - Storm Warning
TTITLE6=Dwight Pullens - Sunglasses After Dark
TTITLE7=The Shades - Strollin' After Dark
TTITLE8=The Imps - Uh Oh
TTITLE9=The Scarlets - Stampede
TTITLE10=The Gamblers - Moon Dawg
TTITLE11=The Rockin' R's - Nameless
TTITLE12=The Ramrods - Ghost Riders In The Sky
TTITLE13=Link Wray and His Ray Men - Right Turn
TTITLE14=Rock-A-Teens - Woo Hoo
TTITLE15=Ray Ethier - President's Walk
TTITLE16=Kip Tyler and The Flips - Jungle Hop
TTITLE17=Freddie and The Hitch Hikers - Sinners
TTITLE18=The Riptides - Machine Gun
TTITLE19=Jett Powers - Go Girl Go
TTITLE20=Sheriff and The Ravels - Shombalor
TTITLE21=Bill Allen and The Backbeats - Please Give Me Something
TTITLE22=Dale Hawkins - Tornado
TTITLE23=The Frantics - Werewolf
TTITLE24=Johnny Burnette - The Train Kept A Rollin'
EXTD=
EXTT0=
EXTT1=
EXTT2=
EXTT3=
EXTT4=
EXTT5=
EXTT6=
EXTT7=
EXTT8=
EXTT9=
EXTT10=
EXTT11=
EXTT12=
EXTT13=
EXTT14=
EXTT15=
EXTT16=
EXTT17=
EXTT18=
EXTT19=
EXTT20=
EXTT21=
EXTT22=
EXTT23=
EXTT24=
PLAYORDER=
